<svg height="3662" width="720" xmlns="http://www.w3.org/2000/svg">
<rect height="3662" fill="#555" width="720"></rect>
<text fill="#7f7" font-family="Courier New" font-size="12" xml:space="preserve">
<tspan x="10" y="26">24 megabytes installed</tspan>
<tspan x="10" y="42"></tspan>
<tspan x="10" y="58">node_modules</tspan>
<tspan x="10" y="74">└─┬ escpos@2.4.0 </tspan>
<tspan x="10" y="90">  ├─┬ get-pixels@3.3.0 </tspan>
<tspan x="10" y="106">  │ ├── data-uri-to-buffer@0.0.3 </tspan>
<tspan x="10" y="122">  │ ├── jpeg-js@0.1.2 </tspan>
<tspan x="10" y="138">  │ ├─┬ mime-types@2.1.15 </tspan>
<tspan x="10" y="154">  │ │ └── mime-db@1.27.0 </tspan>
<tspan x="10" y="170">  │ ├─┬ ndarray@1.0.18 </tspan>
<tspan x="10" y="186">  │ │ ├── iota-array@1.0.0 </tspan>
<tspan x="10" y="202">  │ │ └── is-buffer@1.1.5 </tspan>
<tspan x="10" y="218">  │ ├─┬ ndarray-pack@1.2.1 </tspan>
<tspan x="10" y="234">  │ │ └─┬ cwise-compiler@1.1.2 </tspan>
<tspan x="10" y="250">  │ │   └── uniq@1.0.1 </tspan>
<tspan x="10" y="266">  │ ├── node-bitmap@0.0.1 </tspan>
<tspan x="10" y="282">  │ ├── omggif@1.0.8 </tspan>
<tspan x="10" y="298">  │ ├── parse-data-uri@0.2.0 </tspan>
<tspan x="10" y="314">  │ ├── pngjs@2.3.1 </tspan>
<tspan x="10" y="330">  │ ├─┬ request@2.81.0 </tspan>
<tspan x="10" y="346">  │ │ ├── aws-sign2@0.6.0 </tspan>
<tspan x="10" y="362">  │ │ ├── aws4@1.6.0 </tspan>
<tspan x="10" y="378">  │ │ ├── caseless@0.12.0 </tspan>
<tspan x="10" y="394">  │ │ ├─┬ combined-stream@1.0.5 </tspan>
<tspan x="10" y="410">  │ │ │ └── delayed-stream@1.0.0 </tspan>
<tspan x="10" y="426">  │ │ ├── extend@3.0.0 </tspan>
<tspan x="10" y="442">  │ │ ├── forever-agent@0.6.1 </tspan>
<tspan x="10" y="458">  │ │ ├─┬ form-data@2.1.4 </tspan>
<tspan x="10" y="474">  │ │ │ └── asynckit@0.4.0 </tspan>
<tspan x="10" y="490">  │ │ ├─┬ har-validator@4.2.1 </tspan>
<tspan x="10" y="506">  │ │ │ ├─┬ ajv@4.11.7 </tspan>
<tspan x="10" y="522">  │ │ │ │ ├── co@4.6.0 </tspan>
<tspan x="10" y="538">  │ │ │ │ └─┬ json-stable-stringify@1.0.1 </tspan>
<tspan x="10" y="554">  │ │ │ │   └── jsonify@0.0.0 </tspan>
<tspan x="10" y="570">  │ │ │ └── har-schema@1.0.5 </tspan>
<tspan x="10" y="586">  │ │ ├─┬ hawk@3.1.3 </tspan>
<tspan x="10" y="602">  │ │ │ ├── boom@2.10.1 </tspan>
<tspan x="10" y="618">  │ │ │ ├── cryptiles@2.0.5 </tspan>
<tspan x="10" y="634">  │ │ │ ├── hoek@2.16.3 </tspan>
<tspan x="10" y="650">  │ │ │ └── sntp@1.0.9 </tspan>
<tspan x="10" y="666">  │ │ ├─┬ http-signature@1.1.1 </tspan>
<tspan x="10" y="682">  │ │ │ ├── assert-plus@0.2.0 </tspan>
<tspan x="10" y="698">  │ │ │ ├─┬ jsprim@1.4.0 </tspan>
<tspan x="10" y="714">  │ │ │ │ ├── assert-plus@1.0.0 </tspan>
<tspan x="10" y="730">  │ │ │ │ ├── extsprintf@1.0.2 </tspan>
<tspan x="10" y="746">  │ │ │ │ ├── json-schema@0.2.3 </tspan>
<tspan x="10" y="762">  │ │ │ │ └── verror@1.3.6 </tspan>
<tspan x="10" y="778">  │ │ │ └─┬ sshpk@1.13.0 </tspan>
<tspan x="10" y="794">  │ │ │   ├── asn1@0.2.3 </tspan>
<tspan x="10" y="810">  │ │ │   ├── assert-plus@1.0.0 </tspan>
<tspan x="10" y="826">  │ │ │   ├── bcrypt-pbkdf@1.0.1 </tspan>
<tspan x="10" y="842">  │ │ │   ├─┬ dashdash@1.14.1 </tspan>
<tspan x="10" y="858">  │ │ │   │ └── assert-plus@1.0.0 </tspan>
<tspan x="10" y="874">  │ │ │   ├── ecc-jsbn@0.1.1 </tspan>
<tspan x="10" y="890">  │ │ │   ├─┬ getpass@0.1.6 </tspan>
<tspan x="10" y="906">  │ │ │   │ └── assert-plus@1.0.0 </tspan>
<tspan x="10" y="922">  │ │ │   ├── jodid25519@1.0.2 </tspan>
<tspan x="10" y="938">  │ │ │   ├── jsbn@0.1.1 </tspan>
<tspan x="10" y="954">  │ │ │   └── tweetnacl@0.14.5 </tspan>
<tspan x="10" y="970">  │ │ ├── is-typedarray@1.0.0 </tspan>
<tspan x="10" y="986">  │ │ ├── isstream@0.1.2 </tspan>
<tspan x="10" y="1002">  │ │ ├── json-stringify-safe@5.0.1 </tspan>
<tspan x="10" y="1018">  │ │ ├── oauth-sign@0.8.2 </tspan>
<tspan x="10" y="1034">  │ │ ├── performance-now@0.2.0 </tspan>
<tspan x="10" y="1050">  │ │ ├── qs@6.4.0 </tspan>
<tspan x="10" y="1066">  │ │ ├── safe-buffer@5.0.1 </tspan>
<tspan x="10" y="1082">  │ │ ├── stringstream@0.0.5 </tspan>
<tspan x="10" y="1098">  │ │ ├─┬ tough-cookie@2.3.2 </tspan>
<tspan x="10" y="1114">  │ │ │ └── punycode@1.4.1 </tspan>
<tspan x="10" y="1130">  │ │ ├── tunnel-agent@0.6.0 </tspan>
<tspan x="10" y="1146">  │ │ └── uuid@3.0.1 </tspan>
<tspan x="10" y="1162">  │ └── through@2.3.8 </tspan>
<tspan x="10" y="1178">  ├── iconv-lite@0.4.15 </tspan>
<tspan x="10" y="1194">  ├── mutable-buffer@2.0.3 </tspan>
<tspan x="10" y="1210">  ├── qr-image@3.2.0 </tspan>
<tspan x="10" y="1226">  └─┬ serialport@4.0.7 </tspan>
<tspan x="10" y="1242">    ├── bindings@1.2.1 </tspan>
<tspan x="10" y="1258">    ├─┬ commander@2.9.0 </tspan>
<tspan x="10" y="1274">    │ └── graceful-readlink@1.0.1 </tspan>
<tspan x="10" y="1290">    ├─┬ debug@2.6.4 </tspan>
<tspan x="10" y="1306">    │ └── ms@0.7.3 </tspan>
<tspan x="10" y="1322">    ├─┬ lie@3.1.1 </tspan>
<tspan x="10" y="1338">    │ └── immediate@3.0.6 </tspan>
<tspan x="10" y="1354">    ├── nan@2.6.2 </tspan>
<tspan x="10" y="1370">    ├─┬ node-pre-gyp@0.6.32 </tspan>
<tspan x="10" y="1386">    │ ├─┬ mkdirp@0.5.1 </tspan>
<tspan x="10" y="1402">    │ │ └── minimist@0.0.8 </tspan>
<tspan x="10" y="1418">    │ ├─┬ nopt@3.0.6 </tspan>
<tspan x="10" y="1434">    │ │ └── abbrev@1.0.9 </tspan>
<tspan x="10" y="1450">    │ ├─┬ npmlog@4.0.1 </tspan>
<tspan x="10" y="1466">    │ │ ├─┬ are-we-there-yet@1.1.2 </tspan>
<tspan x="10" y="1482">    │ │ │ ├── delegates@1.0.0 </tspan>
<tspan x="10" y="1498">    │ │ │ └─┬ readable-stream@2.2.2 </tspan>
<tspan x="10" y="1514">    │ │ │   ├── buffer-shims@1.0.0 </tspan>
<tspan x="10" y="1530">    │ │ │   ├── core-util-is@1.0.2 </tspan>
<tspan x="10" y="1546">    │ │ │   ├── inherits@2.0.3 </tspan>
<tspan x="10" y="1562">    │ │ │   ├── isarray@1.0.0 </tspan>
<tspan x="10" y="1578">    │ │ │   ├── process-nextick-args@1.0.7 </tspan>
<tspan x="10" y="1594">    │ │ │   ├── string_decoder@0.10.31 </tspan>
<tspan x="10" y="1610">    │ │ │   └── util-deprecate@1.0.2 </tspan>
<tspan x="10" y="1626">    │ │ ├── console-control-strings@1.1.0 </tspan>
<tspan x="10" y="1642">    │ │ ├─┬ gauge@2.7.2 </tspan>
<tspan x="10" y="1658">    │ │ │ ├── aproba@1.0.4 </tspan>
<tspan x="10" y="1674">    │ │ │ ├── has-unicode@2.0.1 </tspan>
<tspan x="10" y="1690">    │ │ │ ├── object-assign@4.1.0 </tspan>
<tspan x="10" y="1706">    │ │ │ ├── signal-exit@3.0.2 </tspan>
<tspan x="10" y="1722">    │ │ │ ├─┬ string-width@1.0.2 </tspan>
<tspan x="10" y="1738">    │ │ │ │ ├── code-point-at@1.1.0 </tspan>
<tspan x="10" y="1754">    │ │ │ │ └─┬ is-fullwidth-code-point@1.0.0 </tspan>
<tspan x="10" y="1770">    │ │ │ │   └── number-is-nan@1.0.1 </tspan>
<tspan x="10" y="1786">    │ │ │ ├─┬ strip-ansi@3.0.1 </tspan>
<tspan x="10" y="1802">    │ │ │ │ └── ansi-regex@2.0.0 </tspan>
<tspan x="10" y="1818">    │ │ │ ├── supports-color@0.2.0 </tspan>
<tspan x="10" y="1834">    │ │ │ └── wide-align@1.1.0 </tspan>
<tspan x="10" y="1850">    │ │ └── set-blocking@2.0.0 </tspan>
<tspan x="10" y="1866">    │ ├─┬ rc@1.1.6 </tspan>
<tspan x="10" y="1882">    │ │ ├── deep-extend@0.4.1 </tspan>
<tspan x="10" y="1898">    │ │ ├── ini@1.3.4 </tspan>
<tspan x="10" y="1914">    │ │ ├── minimist@1.2.0 </tspan>
<tspan x="10" y="1930">    │ │ └── strip-json-comments@1.0.4 </tspan>
<tspan x="10" y="1946">    │ ├─┬ request@2.79.0 </tspan>
<tspan x="10" y="1962">    │ │ ├── aws-sign2@0.6.0 </tspan>
<tspan x="10" y="1978">    │ │ ├── aws4@1.5.0 </tspan>
<tspan x="10" y="1994">    │ │ ├── caseless@0.11.0 </tspan>
<tspan x="10" y="2010">    │ │ ├─┬ combined-stream@1.0.5 </tspan>
<tspan x="10" y="2026">    │ │ │ └── delayed-stream@1.0.0 </tspan>
<tspan x="10" y="2042">    │ │ ├── extend@3.0.0 </tspan>
<tspan x="10" y="2058">    │ │ ├── forever-agent@0.6.1 </tspan>
<tspan x="10" y="2074">    │ │ ├─┬ form-data@2.1.2 </tspan>
<tspan x="10" y="2090">    │ │ │ └── asynckit@0.4.0 </tspan>
<tspan x="10" y="2106">    │ │ ├─┬ har-validator@2.0.6 </tspan>
<tspan x="10" y="2122">    │ │ │ ├─┬ chalk@1.1.3 </tspan>
<tspan x="10" y="2138">    │ │ │ │ ├── ansi-styles@2.2.1 </tspan>
<tspan x="10" y="2154">    │ │ │ │ ├── escape-string-regexp@1.0.5 </tspan>
<tspan x="10" y="2170">    │ │ │ │ ├─┬ has-ansi@2.0.0 </tspan>
<tspan x="10" y="2186">    │ │ │ │ │ └── ansi-regex@2.0.0 </tspan>
<tspan x="10" y="2202">    │ │ │ │ ├─┬ strip-ansi@3.0.1 </tspan>
<tspan x="10" y="2218">    │ │ │ │ │ └── ansi-regex@2.0.0 </tspan>
<tspan x="10" y="2234">    │ │ │ │ └── supports-color@2.0.0 </tspan>
<tspan x="10" y="2250">    │ │ │ ├─┬ is-my-json-valid@2.15.0 </tspan>
<tspan x="10" y="2266">    │ │ │ │ ├── generate-function@2.0.0 </tspan>
<tspan x="10" y="2282">    │ │ │ │ ├─┬ generate-object-property@1.2.0 </tspan>
<tspan x="10" y="2298">    │ │ │ │ │ └── is-property@1.0.2 </tspan>
<tspan x="10" y="2314">    │ │ │ │ ├── jsonpointer@4.0.0 </tspan>
<tspan x="10" y="2330">    │ │ │ │ └── xtend@4.0.1 </tspan>
<tspan x="10" y="2346">    │ │ │ └─┬ pinkie-promise@2.0.1 </tspan>
<tspan x="10" y="2362">    │ │ │   └── pinkie@2.0.4 </tspan>
<tspan x="10" y="2378">    │ │ ├─┬ hawk@3.1.3 </tspan>
<tspan x="10" y="2394">    │ │ │ ├── boom@2.10.1 </tspan>
<tspan x="10" y="2410">    │ │ │ ├── cryptiles@2.0.5 </tspan>
<tspan x="10" y="2426">    │ │ │ ├── hoek@2.16.3 </tspan>
<tspan x="10" y="2442">    │ │ │ └── sntp@1.0.9 </tspan>
<tspan x="10" y="2458">    │ │ ├─┬ http-signature@1.1.1 </tspan>
<tspan x="10" y="2474">    │ │ │ ├── assert-plus@0.2.0 </tspan>
<tspan x="10" y="2490">    │ │ │ ├─┬ jsprim@1.3.1 </tspan>
<tspan x="10" y="2506">    │ │ │ │ ├── extsprintf@1.0.2 </tspan>
<tspan x="10" y="2522">    │ │ │ │ ├── json-schema@0.2.3 </tspan>
<tspan x="10" y="2538">    │ │ │ │ └── verror@1.3.6 </tspan>
<tspan x="10" y="2554">    │ │ │ └─┬ sshpk@1.10.1 </tspan>
<tspan x="10" y="2570">    │ │ │   ├── asn1@0.2.3 </tspan>
<tspan x="10" y="2586">    │ │ │   ├── assert-plus@1.0.0 </tspan>
<tspan x="10" y="2602">    │ │ │   ├── bcrypt-pbkdf@1.0.0 </tspan>
<tspan x="10" y="2618">    │ │ │   ├── dashdash@1.14.1 </tspan>
<tspan x="10" y="2634">    │ │ │   ├── ecc-jsbn@0.1.1 </tspan>
<tspan x="10" y="2650">    │ │ │   ├── getpass@0.1.6 </tspan>
<tspan x="10" y="2666">    │ │ │   ├── jodid25519@1.0.2 </tspan>
<tspan x="10" y="2682">    │ │ │   ├── jsbn@0.1.0 </tspan>
<tspan x="10" y="2698">    │ │ │   └── tweetnacl@0.14.4 </tspan>
<tspan x="10" y="2714">    │ │ ├── is-typedarray@1.0.0 </tspan>
<tspan x="10" y="2730">    │ │ ├── isstream@0.1.2 </tspan>
<tspan x="10" y="2746">    │ │ ├── json-stringify-safe@5.0.1 </tspan>
<tspan x="10" y="2762">    │ │ ├─┬ mime-types@2.1.13 </tspan>
<tspan x="10" y="2778">    │ │ │ └── mime-db@1.25.0 </tspan>
<tspan x="10" y="2794">    │ │ ├── oauth-sign@0.8.2 </tspan>
<tspan x="10" y="2810">    │ │ ├── qs@6.3.0 </tspan>
<tspan x="10" y="2826">    │ │ ├── stringstream@0.0.5 </tspan>
<tspan x="10" y="2842">    │ │ ├─┬ tough-cookie@2.3.2 </tspan>
<tspan x="10" y="2858">    │ │ │ └── punycode@1.4.1 </tspan>
<tspan x="10" y="2874">    │ │ ├── tunnel-agent@0.4.3 </tspan>
<tspan x="10" y="2890">    │ │ └── uuid@3.0.1 </tspan>
<tspan x="10" y="2906">    │ ├─┬ rimraf@2.5.4 </tspan>
<tspan x="10" y="2922">    │ │ └─┬ glob@7.1.1 </tspan>
<tspan x="10" y="2938">    │ │   ├── fs.realpath@1.0.0 </tspan>
<tspan x="10" y="2954">    │ │   ├─┬ inflight@1.0.6 </tspan>
<tspan x="10" y="2970">    │ │   │ └── wrappy@1.0.2 </tspan>
<tspan x="10" y="2986">    │ │   ├── inherits@2.0.3 </tspan>
<tspan x="10" y="3002">    │ │   ├─┬ minimatch@3.0.3 </tspan>
<tspan x="10" y="3018">    │ │   │ └─┬ brace-expansion@1.1.6 </tspan>
<tspan x="10" y="3034">    │ │   │   ├── balanced-match@0.4.2 </tspan>
<tspan x="10" y="3050">    │ │   │   └── concat-map@0.0.1 </tspan>
<tspan x="10" y="3066">    │ │   ├─┬ once@1.4.0 </tspan>
<tspan x="10" y="3082">    │ │   │ └── wrappy@1.0.2 </tspan>
<tspan x="10" y="3098">    │ │   └── path-is-absolute@1.0.1 </tspan>
<tspan x="10" y="3114">    │ ├── semver@5.3.0 </tspan>
<tspan x="10" y="3130">    │ ├─┬ tar@2.2.1 </tspan>
<tspan x="10" y="3146">    │ │ ├── block-stream@0.0.9 </tspan>
<tspan x="10" y="3162">    │ │ ├─┬ fstream@1.0.10 </tspan>
<tspan x="10" y="3178">    │ │ │ └── graceful-fs@4.1.11 </tspan>
<tspan x="10" y="3194">    │ │ └── inherits@2.0.3 </tspan>
<tspan x="10" y="3210">    │ └─┬ tar-pack@3.3.0 </tspan>
<tspan x="10" y="3226">    │   ├─┬ debug@2.2.0 </tspan>
<tspan x="10" y="3242">    │   │ └── ms@0.7.1 </tspan>
<tspan x="10" y="3258">    │   ├─┬ fstream@1.0.10 </tspan>
<tspan x="10" y="3274">    │   │ ├── graceful-fs@4.1.11 </tspan>
<tspan x="10" y="3290">    │   │ └── inherits@2.0.3 </tspan>
<tspan x="10" y="3306">    │   ├─┬ fstream-ignore@1.0.5 </tspan>
<tspan x="10" y="3322">    │   │ ├── inherits@2.0.3 </tspan>
<tspan x="10" y="3338">    │   │ └─┬ minimatch@3.0.3 </tspan>
<tspan x="10" y="3354">    │   │   └─┬ brace-expansion@1.1.6 </tspan>
<tspan x="10" y="3370">    │   │     ├── balanced-match@0.4.2 </tspan>
<tspan x="10" y="3386">    │   │     └── concat-map@0.0.1 </tspan>
<tspan x="10" y="3402">    │   ├─┬ once@1.3.3 </tspan>
<tspan x="10" y="3418">    │   │ └── wrappy@1.0.2 </tspan>
<tspan x="10" y="3434">    │   ├─┬ readable-stream@2.1.5 </tspan>
<tspan x="10" y="3450">    │   │ ├── buffer-shims@1.0.0 </tspan>
<tspan x="10" y="3466">    │   │ ├── core-util-is@1.0.2 </tspan>
<tspan x="10" y="3482">    │   │ ├── inherits@2.0.3 </tspan>
<tspan x="10" y="3498">    │   │ ├── isarray@1.0.0 </tspan>
<tspan x="10" y="3514">    │   │ ├── process-nextick-args@1.0.7 </tspan>
<tspan x="10" y="3530">    │   │ ├── string_decoder@0.10.31 </tspan>
<tspan x="10" y="3546">    │   │ └── util-deprecate@1.0.2 </tspan>
<tspan x="10" y="3562">    │   └── uid-number@0.0.6 </tspan>
<tspan x="10" y="3578">    └─┬ object.assign@4.0.4 </tspan>
<tspan x="10" y="3594">      ├─┬ define-properties@1.1.2 </tspan>
<tspan x="10" y="3610">      │ └── foreach@2.0.5 </tspan>
<tspan x="10" y="3626">      ├── function-bind@1.1.0 </tspan>
<tspan x="10" y="3642">      └── object-keys@1.0.11</tspan>
</text>
</svg>
